<mxfile host="app.diagrams.net" agent="Mozilla/5.0 (Macintosh; Intel Mac OS X 10_15_7) AppleWebKit/537.36 (KHTML, like Gecko) Chrome/136.0.0.0 Safari/537.36" version="27.0.5">
  <diagram name="Page-1" id="0GNrb317M7FNsh2NoSQl">
    <mxGraphModel dx="1216" dy="814" grid="1" gridSize="10" guides="1" tooltips="1" connect="1" arrows="1" fold="1" page="1" pageScale="1" pageWidth="850" pageHeight="1100" math="0" shadow="0">
      <root>
        <mxCell id="0" />
        <mxCell id="1" parent="0" />
        <mxCell id="qo7EJkZBotQjA6eEg6jS-1" value="Start" style="html=1;dashed=0;whiteSpace=wrap;shape=mxgraph.dfd.start" vertex="1" parent="1">
          <mxGeometry x="390" y="80" width="80" height="30" as="geometry" />
        </mxCell>
        <mxCell id="qo7EJkZBotQjA6eEg6jS-2" value="&lt;div&gt;&lt;br&gt;&lt;/div&gt;&lt;div&gt;Select group&lt;/div&gt;" style="html=1;strokeWidth=2;shape=manualInput;whiteSpace=wrap;rounded=1;size=26;arcSize=11;" vertex="1" parent="1">
          <mxGeometry x="380" y="230" width="100" height="60" as="geometry" />
        </mxCell>
        <mxCell id="qo7EJkZBotQjA6eEg6jS-3" style="edgeStyle=orthogonalEdgeStyle;rounded=0;orthogonalLoop=1;jettySize=auto;html=1;exitX=1;exitY=0.5;exitDx=0;exitDy=0;exitPerimeter=0;" edge="1" parent="1" source="qo7EJkZBotQjA6eEg6jS-6">
          <mxGeometry relative="1" as="geometry">
            <mxPoint x="375" y="390" as="targetPoint" />
          </mxGeometry>
        </mxCell>
        <mxCell id="qo7EJkZBotQjA6eEg6jS-4" value="No" style="edgeLabel;html=1;align=center;verticalAlign=middle;resizable=0;points=[];" vertex="1" connectable="0" parent="qo7EJkZBotQjA6eEg6jS-3">
          <mxGeometry x="-0.1425" y="1" relative="1" as="geometry">
            <mxPoint as="offset" />
          </mxGeometry>
        </mxCell>
        <mxCell id="qo7EJkZBotQjA6eEg6jS-5" value="Yes" style="edgeStyle=orthogonalEdgeStyle;rounded=0;orthogonalLoop=1;jettySize=auto;html=1;entryX=0.5;entryY=0;entryDx=0;entryDy=0;" edge="1" parent="1" source="qo7EJkZBotQjA6eEg6jS-6" target="qo7EJkZBotQjA6eEg6jS-13">
          <mxGeometry relative="1" as="geometry" />
        </mxCell>
        <mxCell id="qo7EJkZBotQjA6eEg6jS-6" value="Is group team?" style="strokeWidth=2;html=1;shape=mxgraph.flowchart.decision;whiteSpace=wrap;" vertex="1" parent="1">
          <mxGeometry x="225" y="340" width="100" height="100" as="geometry" />
        </mxCell>
        <mxCell id="qo7EJkZBotQjA6eEg6jS-7" style="edgeStyle=orthogonalEdgeStyle;rounded=0;orthogonalLoop=1;jettySize=auto;html=1;" edge="1" parent="1" source="qo7EJkZBotQjA6eEg6jS-11" target="qo7EJkZBotQjA6eEg6jS-14">
          <mxGeometry relative="1" as="geometry" />
        </mxCell>
        <mxCell id="qo7EJkZBotQjA6eEg6jS-8" value="Yes" style="edgeLabel;html=1;align=center;verticalAlign=middle;resizable=0;points=[];" vertex="1" connectable="0" parent="qo7EJkZBotQjA6eEg6jS-7">
          <mxGeometry x="-0.2312" y="-1" relative="1" as="geometry">
            <mxPoint as="offset" />
          </mxGeometry>
        </mxCell>
        <mxCell id="qo7EJkZBotQjA6eEg6jS-9" style="edgeStyle=orthogonalEdgeStyle;rounded=0;orthogonalLoop=1;jettySize=auto;html=1;" edge="1" parent="1" source="qo7EJkZBotQjA6eEg6jS-11" target="qo7EJkZBotQjA6eEg6jS-15">
          <mxGeometry relative="1" as="geometry" />
        </mxCell>
        <mxCell id="qo7EJkZBotQjA6eEg6jS-10" value="No" style="edgeLabel;html=1;align=center;verticalAlign=middle;resizable=0;points=[];" vertex="1" connectable="0" parent="qo7EJkZBotQjA6eEg6jS-9">
          <mxGeometry x="-0.4336" relative="1" as="geometry">
            <mxPoint as="offset" />
          </mxGeometry>
        </mxCell>
        <mxCell id="qo7EJkZBotQjA6eEg6jS-11" value="Is group club?" style="strokeWidth=2;html=1;shape=mxgraph.flowchart.decision;whiteSpace=wrap;" vertex="1" parent="1">
          <mxGeometry x="375" y="340" width="100" height="100" as="geometry" />
        </mxCell>
        <mxCell id="qo7EJkZBotQjA6eEg6jS-12" style="edgeStyle=orthogonalEdgeStyle;rounded=0;orthogonalLoop=1;jettySize=auto;html=1;entryX=0.5;entryY=0;entryDx=0;entryDy=0;entryPerimeter=0;" edge="1" parent="1" source="qo7EJkZBotQjA6eEg6jS-2" target="qo7EJkZBotQjA6eEg6jS-6">
          <mxGeometry relative="1" as="geometry">
            <Array as="points">
              <mxPoint x="430" y="310" />
              <mxPoint x="275" y="310" />
            </Array>
          </mxGeometry>
        </mxCell>
        <mxCell id="qo7EJkZBotQjA6eEg6jS-13" value="Create Team&amp;nbsp;&lt;div&gt;Module&lt;/div&gt;" style="html=1;dashed=0;whiteSpace=wrap;" vertex="1" parent="1">
          <mxGeometry x="218" y="480" width="115" height="50" as="geometry" />
        </mxCell>
        <mxCell id="qo7EJkZBotQjA6eEg6jS-14" value="Register Club&lt;div&gt;Module&lt;/div&gt;" style="html=1;dashed=0;whiteSpace=wrap;" vertex="1" parent="1">
          <mxGeometry x="367.5" y="480" width="115" height="50" as="geometry" />
        </mxCell>
        <mxCell id="qo7EJkZBotQjA6eEg6jS-15" value="Register Organizer Module" style="html=1;dashed=0;whiteSpace=wrap;" vertex="1" parent="1">
          <mxGeometry x="518" y="480" width="115" height="50" as="geometry" />
        </mxCell>
        <mxCell id="qo7EJkZBotQjA6eEg6jS-16" style="edgeStyle=orthogonalEdgeStyle;rounded=0;orthogonalLoop=1;jettySize=auto;html=1;entryX=0.494;entryY=0.277;entryDx=0;entryDy=0;entryPerimeter=0;" edge="1" parent="1" source="qo7EJkZBotQjA6eEg6jS-14">
          <mxGeometry relative="1" as="geometry">
            <mxPoint x="424.4000000000001" y="576.6199999999999" as="targetPoint" />
          </mxGeometry>
        </mxCell>
        <mxCell id="qo7EJkZBotQjA6eEg6jS-17" style="edgeStyle=orthogonalEdgeStyle;rounded=0;orthogonalLoop=1;jettySize=auto;html=1;entryX=0.494;entryY=0.277;entryDx=0;entryDy=0;entryPerimeter=0;" edge="1" parent="1" source="qo7EJkZBotQjA6eEg6jS-15">
          <mxGeometry relative="1" as="geometry">
            <Array as="points">
              <mxPoint x="575.5" y="550" />
              <mxPoint x="424.5" y="550" />
            </Array>
            <mxPoint x="424.4000000000001" y="576.6199999999999" as="targetPoint" />
          </mxGeometry>
        </mxCell>
        <mxCell id="qo7EJkZBotQjA6eEg6jS-18" style="edgeStyle=orthogonalEdgeStyle;rounded=0;orthogonalLoop=1;jettySize=auto;html=1;entryX=0.5;entryY=0.277;entryDx=0;entryDy=0;entryPerimeter=0;" edge="1" parent="1" source="qo7EJkZBotQjA6eEg6jS-13">
          <mxGeometry relative="1" as="geometry">
            <Array as="points">
              <mxPoint x="275.5" y="550" />
              <mxPoint x="425.5" y="550" />
            </Array>
            <mxPoint x="425" y="576.6199999999999" as="targetPoint" />
          </mxGeometry>
        </mxCell>
        <mxCell id="qo7EJkZBotQjA6eEg6jS-19" value="End" style="html=1;dashed=0;whiteSpace=wrap;shape=mxgraph.dfd.start" vertex="1" parent="1">
          <mxGeometry x="385" y="576" width="80" height="30" as="geometry" />
        </mxCell>
        <mxCell id="qo7EJkZBotQjA6eEg6jS-20" value="Create Group" style="strokeWidth=1;html=1;shape=mxgraph.flowchart.display;whiteSpace=wrap;" vertex="1" parent="1">
          <mxGeometry x="375" y="150" width="100" height="60" as="geometry" />
        </mxCell>
        <mxCell id="qo7EJkZBotQjA6eEg6jS-21" style="edgeStyle=orthogonalEdgeStyle;rounded=0;orthogonalLoop=1;jettySize=auto;html=1;entryX=0.552;entryY=-0.019;entryDx=0;entryDy=0;entryPerimeter=0;" edge="1" parent="1" source="qo7EJkZBotQjA6eEg6jS-1" target="qo7EJkZBotQjA6eEg6jS-20">
          <mxGeometry relative="1" as="geometry" />
        </mxCell>
        <mxCell id="qo7EJkZBotQjA6eEg6jS-22" style="edgeStyle=orthogonalEdgeStyle;rounded=0;orthogonalLoop=1;jettySize=auto;html=1;entryX=0.448;entryY=0.242;entryDx=0;entryDy=0;entryPerimeter=0;" edge="1" parent="1" source="qo7EJkZBotQjA6eEg6jS-20" target="qo7EJkZBotQjA6eEg6jS-2">
          <mxGeometry relative="1" as="geometry" />
        </mxCell>
      </root>
    </mxGraphModel>
  </diagram>
</mxfile>
